# xmcd CD database file
#
# Track frame offsets:
#	150
#	10106
#	36714
#	66160
#	102015
#	133560
#	153677
#	193872
#	215406
#
# Disc length: 3048 seconds
#
# Revision: 0
# Processed by: cddbd v1.5.2PL0 Copyright (c) Steve Scherf et al.
# Submitted via: CDex 1.70beta2
#
DISCID=800be609
DTITLE=Vincent Peirani - Living being
DYEAR=2015
DGENRE=Jazz
TTITLE0=Suite en V part 4
TTITLE1=Suite en V part 1
TTITLE2=Dream Brother
TTITLE3=Mutinerie
TTITLE4=On the heights
TTITLE5=Air song
TTITLE6=Some Monk
TTITLE7=Workin' rithym
TTITLE8=Miniature
EXTD=YEAR: 2015
EXTT0=
EXTT1=
EXTT2=
EXTT3=
EXTT4=
EXTT5=
EXTT6=
EXTT7=
EXTT8=
PLAYORDER=
